<svg xmlns="http://www.w3.org/2000/svg" xmlns:xlink="http://www.w3.org/1999/xlink" width="500" zoomAndPan="magnify" viewBox="0 0 375 374.999991" height="500" preserveAspectRatio="xMidYMid meet" version="1.0"><defs><clipPath id="ad305a44cc"><path d="M 72.601562 77.117188 L 310.351562 77.117188 L 310.351562 314.867188 L 72.601562 314.867188 Z M 72.601562 77.117188 " clip-rule="nonzero"/></clipPath></defs><g clip-path="url(#ad305a44cc)"><path fill="#15a595" d="M 191.445312 77.113281 C 211.359375 77.113281 230.113281 82.027344 246.601562 90.691406 L 246.601562 222.085938 C 246.601562 226.738281 245.757812 231.007812 244.015625 235.082031 C 242.269531 239.089844 239.875 242.648438 236.835938 245.75 C 233.796875 248.789062 230.175781 251.183594 226.105469 252.925781 C 221.964844 254.609375 217.566406 255.515625 212.976562 255.515625 C 208.320312 255.515625 203.988281 254.609375 199.980469 252.925781 C 195.90625 251.183594 192.414062 248.789062 189.3125 245.75 C 186.269531 242.648438 183.878906 239.15625 182.132812 235.082031 C 180.453125 231.007812 179.546875 226.738281 179.546875 222.085938 L 179.546875 176.625 C 179.546875 160.203125 157.5625 160.203125 157.5625 176.886719 L 157.5625 222.085938 C 157.5625 229.84375 158.984375 237.085938 161.894531 243.746094 C 164.738281 250.40625 168.746094 256.289062 173.726562 261.335938 C 178.769531 266.3125 184.65625 270.324219 191.445312 273.167969 C 198.234375 276.078125 205.410156 277.5 212.976562 277.5 C 220.734375 277.5 227.914062 276.078125 234.636719 273.167969 C 241.300781 270.324219 247.183594 266.3125 252.292969 261.335938 C 257.398438 256.289062 261.40625 250.40625 264.316406 243.746094 C 267.230469 237.085938 268.652344 229.84375 268.652344 222.085938 L 268.652344 105.5625 C 294.128906 127.417969 310.355469 159.816406 310.355469 195.960938 C 310.355469 261.59375 257.078125 314.875 191.445312 314.875 C 171.527344 314.875 152.777344 309.960938 136.289062 301.296875 L 136.289062 171.582031 C 136.289062 166.925781 137.191406 162.597656 138.9375 158.585938 C 140.621094 154.511719 143.011719 151.023438 146.117188 147.917969 C 149.15625 144.878906 152.710938 142.484375 156.71875 140.738281 C 160.792969 139.058594 165.128906 138.152344 169.71875 138.152344 C 174.308594 138.152344 178.707031 139.058594 182.84375 140.738281 C 186.980469 142.484375 190.539062 144.878906 193.578125 147.917969 C 196.679688 151.023438 199.074219 154.511719 200.753906 158.585938 C 202.503906 162.660156 203.34375 166.925781 203.34375 171.582031 L 203.34375 218.722656 C 203.34375 232.820312 225.390625 232.882812 225.390625 218.398438 L 225.390625 171.582031 C 225.390625 163.824219 223.96875 156.582031 221.058594 149.921875 C 218.148438 143.261719 214.203125 137.378906 209.03125 132.332031 C 203.925781 127.355469 198.039062 123.34375 191.378906 120.5 C 184.71875 117.589844 177.476562 116.167969 169.71875 116.167969 C 162.152344 116.167969 154.976562 117.589844 148.183594 120.5 C 141.394531 123.34375 135.511719 127.355469 130.46875 132.332031 C 125.488281 137.378906 121.480469 143.261719 118.636719 149.921875 C 115.726562 156.582031 114.304688 163.824219 114.304688 171.582031 L 114.304688 286.359375 C 88.761719 264.566406 72.59375 232.171875 72.59375 195.960938 C 72.59375 130.328125 125.8125 77.113281 191.445312 77.113281 " fill-opacity="1" fill-rule="evenodd"/></g></svg>